<svg width="42" height="43" viewBox="0 0 42 43" fill="none" xmlns="http://www.w3.org/2000/svg">
<path d="M26.4445 5.20947C26.5766 6.93499 26.0308 8.64404 24.9233 9.97375C24.3928 10.6333 23.7197 11.1641 22.9544 11.5259C22.1893 11.8877 21.352 12.0712 20.5056 12.0625C20.4515 11.2327 20.5616 10.4004 20.8294 9.61318C21.0973 8.82597 21.5177 8.09926 22.0665 7.47461C23.1891 6.19597 24.7522 5.38721 26.4445 5.20947Z" fill="white"/>
<path d="M29.532 17.7678C28.9696 18.7587 28.667 19.8756 28.6523 21.0148C28.6538 22.2962 29.0322 23.5489 29.7408 24.6167C30.4494 25.6844 31.4565 26.52 32.6367 27.0191C32.1727 28.5265 31.4733 29.9511 30.5643 31.24C29.3435 33.066 28.0637 34.85 26.0322 34.8829C25.0661 34.9053 24.414 34.6275 23.7343 34.338C23.0255 34.036 22.2869 33.7213 21.131 33.7213C19.9052 33.7213 19.1334 34.0461 18.3892 34.3594C17.7459 34.6301 17.1232 34.8921 16.2456 34.9286C14.311 35.0001 12.8325 32.9796 11.5674 31.1706C9.03882 27.4765 7.06993 20.7599 9.70948 16.1898C10.3189 15.0947 11.2015 14.1763 12.2714 13.5237C13.3412 12.8713 14.5619 12.507 15.8145 12.4666C16.9117 12.444 17.9646 12.8669 18.8876 13.2378C19.5936 13.5213 20.2236 13.7743 20.7395 13.7743C21.193 13.7743 21.8056 13.5313 22.5193 13.248C23.6436 12.8017 25.0194 12.2557 26.4214 12.4029C27.4958 12.4365 28.5475 12.7202 29.4932 13.2314C30.4388 13.7426 31.2522 14.4673 31.8688 15.3478C30.8982 15.9445 30.0944 16.777 29.532 17.7678Z" fill="white"/>
</svg>
