<svg width="42" height="43" viewBox="0 0 42 43" fill="none" xmlns="http://www.w3.org/2000/svg">
<path d="M7.22688 30.332C6.12655 30.332 4.99512 31.213 4.99512 32.7551C4.99512 34.1649 5.98991 35.1607 7.22688 35.1607C8.24792 35.1607 8.70299 34.4759 8.70299 34.4759V34.7744C8.70299 34.9155 8.83649 35.0729 9.00173 35.0729H9.73979V30.4373H8.70299V31.0256C8.70299 31.0256 8.24411 30.332 7.22688 30.332ZM7.41156 31.2799C8.31736 31.2799 8.7925 32.0759 8.7925 32.7548C8.7925 33.511 8.22837 34.2292 7.41349 34.2292C6.7323 34.2292 6.04994 33.6779 6.04994 32.7448C6.04994 31.9025 6.63715 31.2799 7.41156 31.2799Z" fill="white"/>
<path d="M11.1806 35.0725C11.0213 35.0725 10.8818 34.9583 10.8818 34.774V30.4369H11.9186V31.0105C12.1536 30.6577 12.6125 30.3301 13.3171 30.3301C14.4686 30.3301 15.0817 31.2473 15.0817 32.105V35.0725H14.3612C14.1723 35.0725 14.0449 34.9144 14.0449 34.7564V32.3333C14.0449 31.8579 13.7534 31.2805 13.0792 31.2805C12.3518 31.2805 11.9186 31.9674 11.9186 32.6142V35.0725H11.1806Z" fill="white"/>
<path d="M18.1048 30.3315C17.0044 30.3315 15.873 31.2126 15.873 32.7547C15.873 34.1645 16.8678 35.1603 18.1048 35.1603C19.1258 35.1603 19.5809 34.4755 19.5809 34.4755V34.774C19.5809 34.915 19.7144 35.0725 19.8796 35.0725H20.6177V28.1191H19.5809V31.0251C19.5809 31.0251 19.122 30.3315 18.1048 30.3315ZM18.2895 31.2794C19.1953 31.2794 19.6704 32.0754 19.6704 32.7543C19.6704 33.5106 19.1063 34.2287 18.2914 34.2287C17.6102 34.2287 16.9278 33.6775 16.9278 32.7444C16.9278 31.902 17.515 31.2794 18.2895 31.2794Z" fill="white"/>
<path d="M22.0586 35.0731C21.8993 35.0731 21.7598 34.9589 21.7598 34.7746V30.4375H22.7966V31.2101C22.9751 30.7773 23.3602 30.3848 24.0443 30.3848C24.235 30.3848 24.4133 30.4199 24.4133 30.4199V31.491C24.4133 31.491 24.1907 31.4032 23.9213 31.4032C23.1938 31.4032 22.7966 32.0902 22.7966 32.737V35.0731H22.0586Z" fill="white"/>
<path d="M30.704 35.0751C30.5447 35.0751 30.4053 34.9609 30.4053 34.7766V30.4395H31.4421V35.0751H30.704Z" fill="white"/>
<path d="M34.4827 30.3315C33.3824 30.3315 32.251 31.2126 32.251 32.7547C32.251 34.1645 33.2457 35.1603 34.4827 35.1603C35.5038 35.1603 35.9588 34.4755 35.9588 34.4755V34.774C35.9588 34.915 36.0923 35.0725 36.2576 35.0725H36.9956V28.1191H35.9588V31.0251C35.9588 31.0251 35.4999 30.3315 34.4827 30.3315ZM34.6674 31.2794C35.5732 31.2794 36.0483 32.0754 36.0483 32.7543C36.0483 33.5106 35.4842 34.2287 34.6693 34.2287C33.9881 34.2287 33.3058 33.6775 33.3058 32.7444C33.3058 31.902 33.893 31.2794 34.6674 31.2794Z" fill="white"/>
<path d="M30.917 29.4384C31.2956 29.4384 31.6025 29.1317 31.6025 28.7534C31.6025 28.3751 31.2956 28.0684 30.917 28.0684C30.5384 28.0684 30.2314 28.3751 30.2314 28.7534C30.2314 29.1317 30.5384 29.4384 30.917 29.4384Z" fill="white"/>
<path d="M27.1478 30.3301C25.9955 30.3301 24.7295 31.1896 24.7295 32.7466C24.7295 34.1654 25.8078 35.1606 27.1453 35.1606C28.7936 35.1606 29.5985 33.8365 29.5985 32.7556C29.5985 31.4291 28.5621 30.3301 27.1478 30.3301ZM27.1516 31.2976C27.9485 31.2976 28.5429 31.9393 28.5429 32.7495C28.5429 33.5737 27.9119 34.2097 27.154 34.2097C26.4504 34.2097 25.7665 33.6376 25.7665 32.7634C25.7665 31.8745 26.417 31.2976 27.1516 31.2976Z" fill="white"/>
<path d="M28.8045 12.559L31.4573 7.96731C31.6069 7.7099 31.5164 7.38292 31.2623 7.23334C31.0082 7.08376 30.6774 7.17072 30.5312 7.42814L27.8437 12.079C25.7932 11.1432 23.4852 10.6214 21.003 10.6214C18.5209 10.6214 16.2128 11.1432 14.1624 12.079L11.4749 7.42814C11.3252 7.17072 10.9979 7.08376 10.7403 7.23334C10.4827 7.38292 10.3957 7.7099 10.5454 7.96731L13.1981 12.559C8.62373 15.0357 5.52541 19.6621 5.01367 25.0781H36.9925C36.4807 19.6621 33.3823 15.0357 28.8045 12.559ZM13.6611 20.5909C12.9196 20.5909 12.3208 19.9891 12.3208 19.2517C12.3208 18.5107 12.9231 17.9124 13.6611 17.9124C14.4026 17.9124 15.0014 18.5142 15.0014 19.2517C15.0049 19.9891 14.4026 20.5909 13.6611 20.5909ZM28.3416 20.5909C27.6001 20.5909 27.0013 19.9891 27.0013 19.2517C27.0013 18.5107 27.6035 17.9124 28.3416 17.9124C29.0831 17.9124 29.6818 18.5142 29.6818 19.2517C29.6853 19.9891 29.0831 20.5909 28.3416 20.5909Z" fill="#3DDC84"/>
</svg>
