<svg width="30" height="31" viewBox="0 0 30 31" fill="none" xmlns="http://www.w3.org/2000/svg">
<path d="M13.125 26.2852C7.81248 25.3477 3.75 20.7226 3.75 15.1602C3.75 8.97266 8.8125 3.91016 15 3.91016C21.1875 3.91016 26.25 8.97266 26.25 15.1602C26.25 20.7226 22.1875 25.3477 16.875 26.2852L16.25 25.7851H13.75L13.125 26.2852Z" fill="#0062E0"/>
<path d="M19.375 18.2852L19.875 15.1601H16.875V12.9727C16.875 12.0977 17.1875 11.4101 18.5625 11.4101H20V8.53518C19.1875 8.41013 18.3125 8.28516 17.5 8.28516C14.9375 8.28516 13.125 9.84768 13.125 12.6602V15.1601H10.3125V18.2852H13.125V26.2226C13.75 26.3477 14.375 26.4101 15 26.4101C15.625 26.4101 16.25 26.3477 16.875 26.2226V18.2852H19.375Z" fill="white"/>
</svg>
