<svg width="28" height="28" viewBox="0 0 28 28" fill="none" xmlns="http://www.w3.org/2000/svg">
    <path d="M20.4258 7.875C20.5898 7.875 20.7266 7.82031 20.8359 7.71094C20.9453 7.60156 21 7.46484 21 7.30078V6.69922C21 6.53516 20.9453 6.39844 20.8359 6.28906C20.7266 6.17969 20.5898 6.125 20.4258 6.125H0.574219C0.410156 6.125 0.273438 6.17969 0.164062 6.28906C0.0546875 6.39844 0 6.53516 0 6.69922V7.30078C0 7.46484 0.0546875 7.60156 0.164062 7.71094C0.273438 7.82031 0.410156 7.875 0.574219 7.875H20.4258ZM15.1758 14.3008C15.1758 14.4648 15.1165 14.6016 14.998 14.7109C14.8796 14.8203 14.7383 14.875 14.5742 14.875H0.574219C0.410156 14.875 0.273438 14.8203 0.164062 14.7109C0.0546875 14.6016 0 14.4648 0 14.3008V13.6992C0 13.5352 0.0546875 13.3984 0.164062 13.2891C0.273438 13.1797 0.410156 13.125 0.574219 13.125H14.5742C14.7383 13.125 14.8796 13.1797 14.998 13.2891C15.1165 13.3984 15.1758 13.5352 15.1758 13.6992V14.3008ZM21 21.3008C21 21.4648 20.9453 21.6016 20.8359 21.7109C20.7266 21.8203 20.5898 21.875 20.4258 21.875H0.574219C0.410156 21.875 0.273438 21.8203 0.164062 21.7109C0.0546875 21.6016 0 21.4648 0 21.3008V20.6992C0 20.5352 0.0546875 20.3984 0.164062 20.2891C0.273438 20.1797 0.410156 20.125 0.574219 20.125H20.4258C20.5898 20.125 20.7266 20.1797 20.8359 20.2891C20.9453 20.3984 21 20.5352 21 20.6992V21.3008Z" fill="white"/>
</svg>
