<svg width="36" height="22" viewBox="0 0 36 22" fill="none" xmlns="http://www.w3.org/2000/svg">
    <g clip-path="url(#clip0_5614_112)">
        <g clip-path="url(#clip1_5614_112)">
            <g clip-path="url(#clip2_5614_112)">
                <path opacity="0.2" d="M3 5.27036C3 4.49456 3.59159 3.84677 4.36419 3.77652L34.3643 1.04925C35.2426 0.969394 36 1.66104 36 2.54309V14.3888C36 15.1353 35.451 15.7682 34.712 15.8737L3 20.4005V5.27036Z" fill="#111315"/>
                <path d="M0 18.9004V17.4004L3 18.1504V21.9004L0.75 19.6504L0 18.9004Z" fill="#048A5A"/>
                <path d="M0 5.28037C0 4.50024 0.597993 3.85035 1.37543 3.78556L34.3755 1.03556C35.25 0.962681 36 1.65282 36 2.53038V14.52C36 15.3001 35.402 15.95 34.6245 16.0148L0 18.9002V5.28037Z" fill="url(#paint0_linear_5614_112)"/>
                <path d="M11.2919 6.43996L10.9305 11.7128L5.54434 6.62204L4.95508 15.5374L6.59041 15.3689L6.95062 10.0841L12.338 15.1868L12.9273 6.27143L11.2919 6.43996ZM15.1452 14.4874L19.2633 14.063L19.3652 12.5928L15.2471 13.0172L15.1452 14.4874ZM15.6147 7.4542L19.733 7.02985L19.8348 5.55967L15.7166 5.98402L15.6147 7.4542ZM15.3929 10.686L19.2842 10.285L19.3898 8.85062L15.4983 9.2516L15.3929 10.686ZM14.6423 6.09472L14.0828 14.5969L15.6942 14.4308L16.2776 5.92621L14.6423 6.09472ZM28.5794 9.95449L26.5973 4.41649L24.0063 10.4137L22.5603 5.27881L20.6267 5.47807L23.5805 14.1248L26.4393 8.26897L28.7121 13.584L32.5872 4.24561L30.5819 4.45225L28.5794 9.95449Z" fill="white"/>
            </g>
        </g>
    </g>
    <defs>
        <linearGradient id="paint0_linear_5614_112" x1="-3.91535e-07" y1="4.65018" x2="32.6904" y2="13.5285" gradientUnits="userSpaceOnUse">
            <stop stop-color="#00CF84"/>
            <stop offset="1" stop-color="#01AF70"/>
        </linearGradient>
        <clipPath id="clip0_5614_112">
            <rect width="36" height="21" fill="white" transform="translate(0 0.900391)"/>
        </clipPath>
        <clipPath id="clip1_5614_112">
            <rect width="36" height="21" fill="white" transform="translate(0 0.900391)"/>
        </clipPath>
        <clipPath id="clip2_5614_112">
            <rect width="36" height="21" fill="white" transform="translate(0 0.900391)"/>
        </clipPath>
    </defs>
</svg>
