<svg width="24" height="25" viewBox="0 0 24 25" fill="none" xmlns="http://www.w3.org/2000/svg">
    <path d="M8.19141 2.02588V3.5083C8.19141 4.28695 8.46842 4.95329 9.02246 5.50732C9.5765 6.06136 10.2428 6.33838 11.0215 6.33838H11.7852C12.0697 6.33838 12.3242 6.42822 12.5488 6.60791C12.7734 6.7876 12.9082 7.01221 12.9531 7.28174H8.91016C7.68229 7.28174 6.72021 7.3042 6.02393 7.34912C5.32764 7.39404 4.75488 7.55876 4.30566 7.84326C4.03613 7.993 3.78906 8.18018 3.56445 8.40479C3.33984 8.62939 3.14518 8.87646 2.98047 9.146C2.71094 9.61019 2.55371 10.1867 2.50879 10.8755C2.46387 11.5643 2.44141 12.5226 2.44141 13.7505C2.44141 14.9933 2.46387 15.9591 2.50879 16.6479C2.55371 17.3368 2.71094 17.9058 2.98047 18.355C3.14518 18.6245 3.33984 18.8716 3.56445 19.0962C3.78906 19.3208 4.03613 19.5155 4.30566 19.6802C4.75488 19.9497 5.32764 20.1069 6.02393 20.1519C6.72021 20.1968 7.68229 20.2192 8.91016 20.2192H14.6602C15.888 20.2192 16.8501 20.1968 17.5464 20.1519C18.2427 20.1069 18.8154 19.9497 19.2646 19.6802C19.5342 19.5155 19.7812 19.3208 20.0059 19.0962C20.2305 18.8716 20.4251 18.6245 20.5898 18.355C20.8594 17.9058 21.0166 17.3368 21.0615 16.6479C21.1064 15.9591 21.1289 14.9933 21.1289 13.7505C21.1289 12.5226 21.1064 11.5643 21.0615 10.8755C21.0166 10.1867 20.8594 9.61019 20.5898 9.146C20.4251 8.87646 20.2305 8.62939 20.0059 8.40479C19.7812 8.18018 19.5342 7.993 19.2646 7.84326C18.8154 7.55876 18.2427 7.39404 17.5464 7.34912C16.8501 7.3042 15.888 7.28174 14.6602 7.28174H14.4131C14.3532 6.60791 14.0724 6.04264 13.5708 5.58594C13.0692 5.12923 12.474 4.90088 11.7852 4.90088H11.0215C10.6322 4.90088 10.3027 4.76237 10.0332 4.48535C9.76367 4.20833 9.62891 3.88265 9.62891 3.5083V2.02588C9.62891 1.89111 9.58398 1.77506 9.49414 1.67773C9.4043 1.5804 9.29199 1.53174 9.15723 1.53174H8.66309C8.52832 1.53174 8.41602 1.5804 8.32617 1.67773C8.23633 1.77506 8.19141 1.89111 8.19141 2.02588ZM6.14746 8.78662C6.47689 8.75667 6.86247 8.73796 7.3042 8.73047C7.74593 8.72298 8.28125 8.71924 8.91016 8.71924H14.6602C15.2891 8.71924 15.8244 8.72298 16.2661 8.73047C16.7078 8.73796 17.0934 8.75667 17.4229 8.78662C17.7223 8.81657 17.9582 8.85775 18.1304 8.91016C18.3026 8.96257 18.4336 9.01872 18.5234 9.07861C18.6882 9.16846 18.8416 9.2845 18.9839 9.42676C19.1261 9.56901 19.2497 9.72249 19.3545 9.88721C19.4144 9.99202 19.4668 10.1268 19.5117 10.2915C19.5566 10.4562 19.5941 10.6958 19.624 11.0103C19.654 11.3247 19.6727 11.7028 19.6802 12.1445C19.6877 12.5863 19.6914 13.1216 19.6914 13.7505C19.6914 14.3794 19.6877 14.9147 19.6802 15.3564C19.6727 15.7982 19.654 16.1838 19.624 16.5132C19.5941 16.8276 19.5566 17.0672 19.5117 17.2319C19.4668 17.3966 19.4144 17.5314 19.3545 17.6362C19.2497 17.8009 19.1261 17.9507 18.9839 18.0854C18.8416 18.2202 18.6882 18.34 18.5234 18.4448C18.4336 18.5047 18.3026 18.5609 18.1304 18.6133C17.9582 18.6657 17.7223 18.7069 17.4229 18.7368C17.0934 18.7668 16.7078 18.7817 16.2661 18.7817C15.8244 18.7817 15.2891 18.7817 14.6602 18.7817H8.91016C8.28125 18.7817 7.74593 18.7817 7.3042 18.7817C6.86247 18.7817 6.47689 18.7668 6.14746 18.7368C5.84798 18.7069 5.61214 18.6657 5.43994 18.6133C5.26774 18.5609 5.13672 18.5047 5.04688 18.4448C4.88216 18.34 4.72868 18.2202 4.58643 18.0854C4.44417 17.9507 4.32064 17.8009 4.21582 17.6362C4.15592 17.5314 4.10352 17.3966 4.05859 17.2319C4.01367 17.0672 3.97624 16.8276 3.94629 16.5132C3.91634 16.1838 3.89762 15.7982 3.89014 15.3564C3.88265 14.9147 3.87891 14.3794 3.87891 13.7505C3.87891 13.1216 3.88265 12.5863 3.89014 12.1445C3.89762 11.7028 3.91634 11.3247 3.94629 11.0103C3.97624 10.6958 4.01367 10.4562 4.05859 10.2915C4.10352 10.1268 4.15592 9.99202 4.21582 9.88721C4.32064 9.72249 4.44417 9.56901 4.58643 9.42676C4.72868 9.2845 4.88216 9.16846 5.04688 9.07861C5.13672 9.01872 5.26774 8.96257 5.43994 8.91016C5.61214 8.85775 5.84798 8.81657 6.14746 8.78662ZM7.22559 15.9067C7.22559 16.0415 7.27425 16.1576 7.37158 16.2549C7.46891 16.3522 7.58496 16.4009 7.71973 16.4009H8.19141C8.32617 16.4009 8.43848 16.3522 8.52832 16.2549C8.61816 16.1576 8.66309 16.0415 8.66309 15.9067V14.4692H10.1006C10.2354 14.4692 10.3514 14.4243 10.4487 14.3345C10.5461 14.2446 10.5947 14.1323 10.5947 13.9976V13.5259C10.5947 13.3911 10.5461 13.2751 10.4487 13.1777C10.3514 13.0804 10.2354 13.0317 10.1006 13.0317H8.66309V11.5942C8.66309 11.4595 8.61816 11.3472 8.52832 11.2573C8.43848 11.1675 8.32617 11.1226 8.19141 11.1226H7.71973C7.58496 11.1226 7.46891 11.1675 7.37158 11.2573C7.27425 11.3472 7.22559 11.4595 7.22559 11.5942V13.0317H5.78809C5.65332 13.0317 5.54102 13.0804 5.45117 13.1777C5.36133 13.2751 5.31641 13.3911 5.31641 13.5259V13.9976C5.31641 14.1323 5.36133 14.2446 5.45117 14.3345C5.54102 14.4243 5.65332 14.4692 5.78809 14.4692H7.22559V15.9067ZM12.751 14.7163C12.751 14.4468 12.8446 14.2184 13.0317 14.0312C13.2189 13.8441 13.4398 13.7505 13.6943 13.7505C13.9639 13.7505 14.1922 13.8441 14.3794 14.0312C14.5666 14.2184 14.6602 14.4468 14.6602 14.7163C14.6602 14.9858 14.5666 15.2142 14.3794 15.4014C14.1922 15.5885 13.9639 15.6821 13.6943 15.6821C13.4398 15.6821 13.2189 15.5885 13.0317 15.4014C12.8446 15.2142 12.751 14.9858 12.751 14.7163ZM16.5693 11.8413C16.3148 11.8413 16.0939 11.9349 15.9067 12.1221C15.7196 12.3092 15.626 12.5376 15.626 12.8071C15.626 13.0617 15.7196 13.2826 15.9067 13.4697C16.0939 13.6569 16.3148 13.7505 16.5693 13.7505C16.8389 13.7505 17.0672 13.6569 17.2544 13.4697C17.4416 13.2826 17.5352 13.0617 17.5352 12.8071C17.5352 12.5376 17.4416 12.3092 17.2544 12.1221C17.0672 11.9349 16.8389 11.8413 16.5693 11.8413Z" fill="white"/>
</svg>
