<svg width="15" height="16" viewBox="0 0 15 16" fill="none" xmlns="http://www.w3.org/2000/svg">
    <path d="M7.59961 1.98242C8.41602 1.98242 9.18945 2.13281 9.91992 2.43359C10.6361 2.7487 11.2663 3.17839 11.8105 3.72266C12.3548 4.26693 12.7845 4.89714 13.0996 5.61328C13.4004 6.34375 13.5508 7.11719 13.5508 7.93359C13.5508 8.75 13.4004 9.52344 13.0996 10.2539C12.7845 10.9701 12.3548 11.6003 11.8105 12.1445C11.2663 12.6888 10.6361 13.1185 9.91992 13.4336C9.18945 13.7344 8.41602 13.8848 7.59961 13.8848C6.7832 13.8848 6.00977 13.7344 5.2793 13.4336C4.56315 13.1185 3.93294 12.6888 3.38867 12.1445C2.8444 11.6003 2.41471 10.9701 2.09961 10.2539C1.79883 9.52344 1.64844 8.75 1.64844 7.93359C1.64844 7.11719 1.79883 6.34375 2.09961 5.61328C2.41471 4.89714 2.8444 4.26693 3.38867 3.72266C3.93294 3.17839 4.56315 2.7487 5.2793 2.43359C6.00977 2.13281 6.7832 1.98242 7.59961 1.98242ZM7.59961 0.607422C6.58268 0.607422 5.63021 0.79362 4.74219 1.16602C3.85417 1.55273 3.07715 2.0791 2.41113 2.74512C1.74512 3.41113 1.21875 4.18815 0.832031 5.07617C0.459635 5.96419 0.273438 6.91667 0.273438 7.93359C0.273438 8.95052 0.459635 9.90299 0.832031 10.791C1.21875 11.679 1.74512 12.4561 2.41113 13.1221C3.07715 13.7881 3.85417 14.3145 4.74219 14.7012C5.63021 15.0736 6.58268 15.2598 7.59961 15.2598C8.61654 15.2598 9.56901 15.0736 10.457 14.7012C11.3451 14.3145 12.1221 13.7881 12.7881 13.1221C13.4541 12.4561 13.9805 11.679 14.3672 10.791C14.7396 9.90299 14.9258 8.95052 14.9258 7.93359C14.9258 6.91667 14.7396 5.96419 14.3672 5.07617C13.9805 4.18815 13.4541 3.41113 12.7881 2.74512C12.1221 2.0791 11.3451 1.55273 10.457 1.16602C9.56901 0.79362 8.61654 0.607422 7.59961 0.607422ZM7.75 6.70898H7.29883C7.16992 6.70898 7.05892 6.75553 6.96582 6.84863C6.87272 6.94173 6.82617 7.04557 6.82617 7.16016V11.1348C6.82617 11.2637 6.87272 11.3747 6.96582 11.4678C7.05892 11.5609 7.16992 11.6074 7.29883 11.6074H7.75C7.87891 11.6074 7.98633 11.5609 8.07227 11.4678C8.1582 11.3747 8.20117 11.2637 8.20117 11.1348V7.16016C8.20117 7.04557 8.1582 6.94173 8.07227 6.84863C7.98633 6.75553 7.87891 6.70898 7.75 6.70898ZM8.20117 4.73242V5.0332C8.20117 5.16211 8.1582 5.26953 8.07227 5.35547C7.98633 5.44141 7.87891 5.48438 7.75 5.48438H7.29883C7.16992 5.48438 7.05892 5.44141 6.96582 5.35547C6.87272 5.26953 6.82617 5.16211 6.82617 5.0332V4.73242C6.82617 4.60352 6.87272 4.49251 6.96582 4.39941C7.05892 4.30632 7.16992 4.25977 7.29883 4.25977H7.75C7.87891 4.25977 7.98633 4.30632 8.07227 4.39941C8.1582 4.49251 8.20117 4.60352 8.20117 4.73242Z" fill="white"/>
</svg>
