<svg width="30" height="31" viewBox="0 0 30 31" fill="none" xmlns="http://www.w3.org/2000/svg">
<path fill-rule="evenodd" clip-rule="evenodd" d="M24.7144 10.2712C24.7229 10.4898 24.7257 10.7083 24.7257 10.9269C24.7257 17.5547 20.0634 25.206 11.5377 25.206C8.91869 25.206 6.48347 24.3713 4.43164 22.9504C4.79434 22.9901 5.16269 23.02 5.53669 23.02C7.70819 23.02 9.70816 22.2149 11.2946 20.8636C9.26635 20.8338 7.55369 19.3731 6.96303 17.3858C7.24653 17.4454 7.53855 17.4753 7.83719 17.4753C8.25834 17.4753 8.66716 17.4157 9.05907 17.2964C6.93657 16.8394 5.33792 14.8124 5.33792 12.3779C5.33792 12.3481 5.33792 12.3381 5.33792 12.3182C5.96345 12.6859 6.67941 12.9143 7.43969 12.9441C6.19425 12.0398 5.37558 10.4997 5.37558 8.76077C5.37558 7.84665 5.60356 6.98211 6.00488 6.23685C8.29032 9.27745 11.7073 11.2748 15.5594 11.4834C15.4802 11.1158 15.4397 10.7284 15.4397 10.3408C15.4397 7.56847 17.5151 5.32275 20.0756 5.32275C21.4087 5.32275 22.6127 5.92898 23.4577 6.90276C24.5156 6.68416 25.5067 6.26685 26.4036 5.69053C26.0559 6.86305 25.322 7.84659 24.363 8.46268C25.3013 8.34343 26.1963 8.07534 27.0263 7.67784C26.4036 8.68147 25.6198 9.56565 24.7144 10.2712Z" fill="#1EA1F2"/>
</svg>
