<svg width="33" height="22" viewBox="0 0 33 22" fill="none" xmlns="http://www.w3.org/2000/svg">
    <g clip-path="url(#clip0_5614_408)">
        <g clip-path="url(#clip1_5614_408)">
            <g clip-path="url(#clip2_5614_408)">
                <path opacity="0.2" d="M0 5.27036C0 4.49456 0.591585 3.84677 1.36419 3.77652L31.3643 1.04925C32.2426 0.969394 33 1.66104 33 2.54309V14.3888C33 15.1353 32.451 15.7682 31.712 15.8737L0 20.4005V5.27036Z" fill="#111315"/>
                <path d="M-3 5.28037C-3 4.50024 -2.40201 3.85035 -1.62457 3.78556L31.3755 1.03556C32.25 0.962681 33 1.65282 33 2.53038V14.52C33 15.3001 32.402 15.95 31.6245 16.0148L-3 18.9002V5.28037Z" fill="url(#paint0_linear_5614_408)"/>
                <path d="M4.56929 11.5383L10.5616 10.9208L10.6655 9.35392L4.67322 9.97138L4.56929 11.5383ZM9.78098 6.27235L9.2215 14.7745L10.8927 14.6023L11.476 6.09769L9.78098 6.27235ZM4.33779 6.83324L3.77832 15.3354L5.44947 15.1632L6.02088 6.65981L4.33779 6.83324ZM14.2245 10.0367C14.2496 9.65614 14.3325 9.28972 14.4731 8.93744C14.6217 8.58436 14.8142 8.26696 15.0506 7.98524C15.2949 7.7027 15.5808 7.4722 15.9081 7.29368C16.2356 7.11518 16.5942 7.00585 16.9842 6.96566C17.3742 6.92549 17.7165 6.97063 18.0116 7.10108C18.3056 7.22357 18.5498 7.40752 18.7439 7.65292C18.9372 7.89035 19.079 8.17331 19.1691 8.5018C19.2585 8.82233 19.2933 9.16054 19.2737 9.51643C19.2566 9.89618 19.1736 10.2626 19.0251 10.6157C18.8765 10.9688 18.6801 11.2866 18.4358 11.5691C18.1985 11.8429 17.9162 12.069 17.5889 12.2475C17.2614 12.426 16.9026 12.5354 16.5128 12.5755C16.1307 12.6149 15.7928 12.5733 15.4986 12.4508C15.2037 12.3204 14.9556 12.1368 14.7543 11.9002C14.561 11.6628 14.4195 11.3838 14.3303 11.0633C14.2481 10.734 14.2128 10.3918 14.2245 10.0367ZM12.4458 10.22C12.4262 10.8091 12.5034 11.3641 12.6777 11.885C12.8592 12.3971 13.1304 12.8436 13.4913 13.2247C13.8515 13.5977 14.2866 13.8786 14.7966 14.0673C15.3066 14.256 15.876 14.318 16.5047 14.2532C17.1413 14.1876 17.7302 14.0103 18.2715 13.7213C18.8127 13.4323 19.2857 13.0659 19.6902 12.6221C20.094 12.1703 20.4117 11.6631 20.6433 11.1004C20.8829 10.5369 21.0191 9.9478 21.0524 9.33316C21.0792 8.73526 20.9979 8.18066 20.8085 7.66939C20.6271 7.15729 20.3526 6.71909 19.9854 6.35482C19.6253 5.98177 19.191 5.70884 18.6827 5.53604C18.1734 5.35529 17.6085 5.2969 16.9877 5.36086C16.359 5.42563 15.7737 5.59855 15.2316 5.87959C14.6967 6.15185 14.2269 6.50989 13.8224 6.95369C13.4177 7.39751 13.0952 7.89719 12.8549 8.45276C12.6146 9.00832 12.4782 9.5974 12.4458 10.22ZM21.3155 6.64L23.5118 6.41368L23.0444 13.3501L24.7274 13.1767L25.1949 6.24025L27.3674 6.01639L27.4832 4.44824L21.4313 5.07187L21.3155 6.64Z" fill="white"/>
            </g>
        </g>
    </g>
    <defs>
        <linearGradient id="paint0_linear_5614_408" x1="-0.75" y1="3.90018" x2="36" y2="18.9002" gradientUnits="userSpaceOnUse">
            <stop stop-color="#FF654F"/>
            <stop offset="1" stop-color="#FF0960"/>
        </linearGradient>
        <clipPath id="clip0_5614_408">
            <rect width="36" height="21" fill="white" transform="translate(-3 0.900391)"/>
        </clipPath>
        <clipPath id="clip1_5614_408">
            <rect width="36" height="21" fill="white" transform="translate(-3 0.900391)"/>
        </clipPath>
        <clipPath id="clip2_5614_408">
            <rect width="36" height="21" fill="white" transform="translate(-3 0.900391)"/>
        </clipPath>
    </defs>
</svg>
