<svg width="30" height="31" viewBox="0 0 30 31" fill="none" xmlns="http://www.w3.org/2000/svg">
<path d="M4.09082 11.5691C4.09082 8.98054 4.09082 7.68625 4.60258 6.70109C5.03383 5.87089 5.71074 5.19399 6.54093 4.76274C7.52609 4.25098 8.82039 4.25098 11.409 4.25098H18.5908C21.1794 4.25098 22.4737 4.25098 23.4589 4.76274C24.2891 5.19399 24.966 5.87089 25.3972 6.70109C25.909 7.68625 25.909 8.98054 25.909 11.5691V18.751C25.909 21.3396 25.909 22.6339 25.3972 23.619C24.966 24.4492 24.2891 25.1261 23.4589 25.5574C22.4737 26.0692 21.1794 26.0692 18.5908 26.0692H11.409C8.82039 26.0692 7.52609 26.0692 6.54093 25.5574C5.71074 25.1261 5.03383 24.4492 4.60258 23.619C4.09082 22.6339 4.09082 21.3396 4.09082 18.751V11.5691Z" fill="url(#paint0_radial_3113_3107)"/>
<path d="M4.09082 11.5691C4.09082 8.98054 4.09082 7.68625 4.60258 6.70109C5.03383 5.87089 5.71074 5.19399 6.54093 4.76274C7.52609 4.25098 8.82039 4.25098 11.409 4.25098H18.5908C21.1794 4.25098 22.4737 4.25098 23.4589 4.76274C24.2891 5.19399 24.966 5.87089 25.3972 6.70109C25.909 7.68625 25.909 8.98054 25.909 11.5691V18.751C25.909 21.3396 25.909 22.6339 25.3972 23.619C24.966 24.4492 24.2891 25.1261 23.4589 25.5574C22.4737 26.0692 21.1794 26.0692 18.5908 26.0692H11.409C8.82039 26.0692 7.52609 26.0692 6.54093 25.5574C5.71074 25.1261 5.03383 24.4492 4.60258 23.619C4.09082 22.6339 4.09082 21.3396 4.09082 18.751V11.5691Z" fill="url(#paint1_radial_3113_3107)"/>
<path d="M14.988 7.22656C12.8333 7.22656 12.563 7.23597 11.7167 7.27449C10.8721 7.31315 10.2956 7.44686 9.79114 7.64309C9.26935 7.84572 8.82671 8.11681 8.38578 8.55795C7.94444 8.99895 7.67335 9.44159 7.4701 9.96324C7.27339 10.4679 7.13948 11.0445 7.10151 11.8888C7.06367 12.7351 7.05371 13.0057 7.05371 15.1604C7.05371 17.3152 7.06332 17.5847 7.10164 18.431C7.14051 19.2757 7.27421 19.8521 7.47023 20.3566C7.67308 20.8785 7.9441 21.3211 8.38523 21.7621C8.8261 22.2034 9.26867 22.4752 9.79019 22.6778C10.2949 22.8739 10.8716 23.0077 11.7161 23.0464C12.5623 23.0849 12.8325 23.0943 14.987 23.0943C17.1418 23.0943 17.4114 23.0849 18.2577 23.0464C19.1023 23.0077 19.6795 22.8739 20.1842 22.6778C20.7059 22.4752 21.1478 22.2034 21.5886 21.7621C22.03 21.3211 22.301 20.8785 22.5043 20.3568C22.6994 19.8521 22.8332 19.2754 22.8729 18.4312C22.9109 17.5849 22.9208 17.3152 22.9208 15.1604C22.9208 13.0057 22.9109 12.7353 22.8729 11.889C22.8332 11.0444 22.6994 10.4679 22.5043 9.96338C22.301 9.44159 22.03 8.99895 21.5886 8.55795C21.1474 8.11661 20.706 7.84552 20.1838 7.64309C19.678 7.44686 19.1011 7.31315 18.2565 7.27449C17.4103 7.23597 17.1409 7.22656 14.9856 7.22656H14.988ZM14.2763 8.65627C14.4876 8.65599 14.7232 8.65627 14.988 8.65627C17.1063 8.65627 17.3573 8.6639 18.1939 8.70188C18.9674 8.73727 19.3873 8.86654 19.6669 8.97515C20.0371 9.11895 20.3011 9.29084 20.5786 9.56854C20.8563 9.84624 21.0282 10.1107 21.1723 10.4809C21.2809 10.7603 21.4103 11.1801 21.4455 11.9537C21.4835 12.79 21.4918 13.0412 21.4918 15.1586C21.4918 17.2759 21.4835 17.5272 21.4455 18.3636C21.4101 19.1371 21.2809 19.557 21.1723 19.8363C21.0285 20.2065 20.8563 20.4702 20.5786 20.7477C20.3009 21.0254 20.0373 21.1973 19.6669 21.3411C19.3875 21.4502 18.9674 21.5791 18.1939 21.6145C17.3576 21.6525 17.1063 21.6608 14.988 21.6608C12.8696 21.6608 12.6185 21.6525 11.7822 21.6145C11.0087 21.5788 10.5888 21.4495 10.309 21.3409C9.93876 21.1972 9.67428 21.0252 9.39664 20.7476C9.11894 20.4699 8.94705 20.2061 8.80292 19.8356C8.6943 19.5563 8.56489 19.1364 8.52971 18.3629C8.49167 17.5265 8.4841 17.2753 8.4841 15.1567C8.4841 13.038 8.49167 12.788 8.52971 11.9517C8.5651 11.1781 8.6943 10.7582 8.80292 10.4786C8.94671 10.1083 9.11894 9.84393 9.39664 9.56622C9.67428 9.28852 9.93876 9.11663 10.309 8.97249C10.5887 8.8634 11.0087 8.73447 11.7822 8.69895C12.5141 8.66588 12.7977 8.65599 14.2763 8.65429V8.65627ZM19.2229 9.97368C18.6973 9.97368 18.2709 10.3996 18.2709 10.9254C18.2709 11.451 18.6973 11.8774 19.2229 11.8774C19.7486 11.8774 20.175 11.451 20.175 10.9254C20.175 10.3997 19.7486 9.97368 19.2229 9.97368ZM14.988 11.0861C12.738 11.0861 10.9138 12.9103 10.9138 15.1604C10.9138 17.4105 12.738 19.234 14.988 19.234C17.238 19.234 19.0616 17.4105 19.0616 15.1604C19.0616 12.9103 17.238 11.0861 14.988 11.0861ZM14.988 12.5158C16.4485 12.5158 17.6326 13.6997 17.6326 15.1604C17.6326 16.6209 16.4485 17.805 14.988 17.805C13.5274 17.805 12.3435 16.6209 12.3435 15.1604C12.3435 13.6997 13.5274 12.5158 14.988 12.5158Z" fill="white"/>
<defs>
<radialGradient id="paint0_radial_3113_3107" cx="0" cy="0" r="1" gradientUnits="userSpaceOnUse" gradientTransform="translate(9.88627 27.7496) rotate(-90) scale(21.6235 20.1115)">
<stop stop-color="#FFDD55"/>
<stop offset="0.1" stop-color="#FFDD55"/>
<stop offset="0.5" stop-color="#FF543E"/>
<stop offset="1" stop-color="#C837AB"/>
</radialGradient>
<radialGradient id="paint1_radial_3113_3107" cx="0" cy="0" r="1" gradientUnits="userSpaceOnUse" gradientTransform="translate(0.436158 5.82272) rotate(78.6806) scale(9.6658 39.8427)">
<stop stop-color="#3771C8"/>
<stop offset="0.128" stop-color="#3771C8"/>
<stop offset="1" stop-color="#6600FF" stop-opacity="0"/>
</radialGradient>
</defs>
</svg>
