<svg width="30" height="31" viewBox="0 0 30 31" fill="none" xmlns="http://www.w3.org/2000/svg">
<path d="M15 26.4102C21.2132 26.4102 26.25 21.3734 26.25 15.1602C26.25 8.94695 21.2132 3.91016 15 3.91016C8.7868 3.91016 3.75 8.94695 3.75 15.1602C3.75 21.3734 8.7868 26.4102 15 26.4102Z" fill="url(#paint0_linear_3113_3101)"/>
<path fill-rule="evenodd" clip-rule="evenodd" d="M8.85641 15.0318C12.1241 13.5989 14.303 12.6542 15.3933 12.1977C18.5062 10.8946 19.153 10.6682 19.5746 10.6607C19.6673 10.6591 19.8747 10.6822 20.009 10.7919C20.1224 10.8845 20.1535 11.0096 20.1685 11.0974C20.1834 11.1852 20.202 11.3853 20.1872 11.5416C20.0185 13.3255 19.2886 17.6547 18.9173 19.6528C18.7602 20.4983 18.4507 20.7817 18.1512 20.8095C17.5003 20.8697 17.006 20.3765 16.3756 19.9605C15.389 19.3096 14.8317 18.9045 13.874 18.2693C12.7674 17.5352 13.4848 17.1318 14.1155 16.4725C14.2805 16.2999 17.1486 13.6742 17.2041 13.4361C17.2111 13.4063 17.2175 13.2952 17.152 13.2366C17.0864 13.1779 16.9897 13.198 16.9199 13.2139C16.8209 13.2366 15.2449 14.285 12.1918 16.3594C11.7445 16.6686 11.3392 16.8192 10.9762 16.8113C10.576 16.8026 9.80611 16.5835 9.23379 16.3962C8.53186 16.1666 7.97393 16.0452 8.02248 15.6551C8.04784 15.452 8.32575 15.2442 8.85641 15.0318Z" fill="white"/>
<defs>
<linearGradient id="paint0_linear_3113_3101" x1="15" y1="3.91016" x2="15" y2="26.2433" gradientUnits="userSpaceOnUse">
<stop stop-color="#2AABEE"/>
<stop offset="1" stop-color="#229ED9"/>
</linearGradient>
</defs>
</svg>
