<svg width="94" height="13" viewBox="0 0 94 13" fill="none" xmlns="http://www.w3.org/2000/svg">
<mask id="mask0_5521_740" style="mask-type:luminance" maskUnits="userSpaceOnUse" x="0" y="0" width="94" height="13">
<path d="M93.3431 0.160156H0.5V13.0002H93.3431V0.160156Z" fill="white"/>
</mask>
<g mask="url(#mask0_5521_740)">
<path d="M51.9836 1.40421C51.3435 1.06771 50.6414 0.878418 49.836 0.878418H42.6084V12.9505H45.4789V9.08066H49.485C50.3523 9.08066 51.1163 8.89136 51.7978 8.53386C52.4792 8.17636 53.0368 7.65056 53.4498 7.01956C53.8629 6.36766 54.0693 5.65256 54.0693 4.83236C54.0693 4.07516 53.8835 3.40216 53.4912 2.81332C53.1401 2.2034 52.6238 1.74071 51.9836 1.40421ZM50.7653 5.71566C50.5795 5.94696 50.311 6.15736 50.0012 6.30456C49.6914 6.45176 49.3404 6.51486 48.9481 6.51486H45.4375V3.46526H48.9481C49.3404 3.46526 49.6914 3.52836 50.0012 3.63356C50.311 3.73866 50.5795 3.90696 50.7653 4.11726C50.9512 4.32756 51.0544 4.57996 51.0544 4.87436C51.0544 5.18986 50.9512 5.46326 50.7653 5.71566Z" fill="white"/>
<path d="M58.4749 0.878418H55.6045V12.9505H66.1362V10.3636H58.4749V0.878418Z" fill="white"/>
<path d="M73.4722 0.878418L67.5869 12.9505H70.4986L71.5518 10.8053H78.0359L79.0891 12.9505H82.0628L76.1774 0.878418H73.4722ZM72.6049 8.59696L73.9678 5.79976C74.0711 5.56846 74.195 5.33706 74.2982 5.12676C74.4014 4.89546 74.5047 4.66406 74.5873 4.45376C74.6492 4.30656 74.7112 4.15936 74.7732 4.03316C74.8145 4.15936 74.8764 4.28556 74.9384 4.43276C75.021 4.64306 75.1242 4.85336 75.2275 5.08476C75.3307 5.29506 75.434 5.54736 75.5579 5.79976L76.9414 8.61796H72.6049V8.59696Z" fill="white"/>
<path d="M93.2816 0.878418H89.9361L86.1572 5.98906L82.275 0.878418H78.6611L84.6911 8.44976V12.9505H87.5824V8.30256L93.2816 0.878418Z" fill="white"/>
<path d="M28.2502 0.880859H25.2504L19.8457 12.9492H30.4377V10.362H24.0069L28.2502 0.880859Z" fill="white"/>
<path d="M13.8566 7.99986H20.3977L21.4558 5.61966H14.9289L15.9372 3.38086H22.4569L23.5791 0.880859H14.0169L8.60156 12.9492H18.1638L19.2896 10.4491H12.7556L13.8566 7.99986Z" fill="white"/>
<path d="M9.20009 0.880859L4.98185 10.4273H3.27888V0.89538H0.560547V12.9492H6.78101L12.1999 0.880859H9.20009Z" fill="white"/>
<path d="M37.9585 10.3614V3.46729L35.0799 5.39769V10.3614H31.8984V12.9485H41.1543V10.3614H37.9585Z" fill="white"/>
<path d="M31.4785 2.62951C34.7491 3.83055 38.3296 3.83055 41.6037 2.62951L40.7415 0.194824C38.0268 1.18901 35.0555 1.18901 32.3371 0.194824L31.4785 2.62951Z" fill="#FF87C8"/>
</g>
</svg>
