<svg width="94" height="27" viewBox="0 0 94 27" fill="none" xmlns="http://www.w3.org/2000/svg">
<mask id="mask0_5521_1052" style="mask-type:luminance" maskUnits="userSpaceOnUse" x="0" y="0" width="94" height="27">
<path d="M93.5 0.160156H0.5V26.1602H93.5V0.160156Z" fill="white"/>
</mask>
<g mask="url(#mask0_5521_1052)">
<path fill-rule="evenodd" clip-rule="evenodd" d="M0.81563 5.91821C0.710674 5.67443 0.60632 5.43205 0.5 5.19274C4.18213 3.2262 8.62602 4.13484 11.0671 7.35433C11.3043 9.1135 10.9681 10.9023 10.1085 12.4554C3.54166 12.2499 2.13128 8.97405 0.81563 5.91821ZM2.2376 16.7179C3.48816 14.7983 5.49276 13.2421 9.76004 13.0316C10.684 12.9858 11.7119 13.0022 12.8636 13.0932C12.3617 20.131 5.67651 23.046 0.5 20.2814C0.607881 20.039 0.713678 19.7935 0.820078 19.5466C1.23156 18.5918 1.65266 17.6156 2.2376 16.7179ZM25.512 9.92897H28.2783L30.6986 17.0405L32.9464 9.92897H35.6271L31.9093 20.131H29.4237L25.512 9.92897ZM35.2037 15.0514C35.2037 11.9396 37.3653 9.73511 40.4558 9.73511C43.5254 9.73511 45.687 11.9396 45.687 15.0514C45.687 18.121 43.482 20.3254 40.3916 20.3254C37.3213 20.3254 35.2037 18.1639 35.2037 15.0514ZM42.9623 15.1162V15.03C42.9623 13.0855 42.0108 11.9176 40.4552 11.9176C38.8775 11.9176 37.9261 13.0855 37.9261 15.03V15.1162C37.9261 17.0179 38.8549 18.1424 40.4118 18.1424C41.9894 18.1424 42.9623 17.0191 42.9623 15.1162ZM46.9043 5.58498H49.6064V20.131H46.9043V5.58498ZM51.1483 16.0463V9.92897H53.8285V15.8946C53.8285 17.2564 54.4767 18.0562 55.6874 18.0562C57.092 18.0562 57.6765 16.8675 57.6765 15.1168V9.93016H60.3567V20.1322H57.6765V18.6842C57.136 19.7433 56.2059 20.3278 54.8882 20.3278C52.5743 20.3254 51.1483 18.6824 51.1483 16.0463ZM62.8061 17.4289V12.0906H61.3575V9.92897H62.8061V8.00584L65.4208 6.53525V9.92897H67.4313V12.0906H65.3994V17.1702C65.3994 17.6673 65.6366 17.8838 66.1338 17.9046H67.3231V20.131H65.2483C63.2806 20.0228 62.8489 19.1153 62.8061 17.4289ZM68.6486 5.82225H71.4363V8.43756H68.6486V5.82225ZM68.6926 9.92897H71.3947V20.131H68.6926V9.92897ZM72.612 15.0514C72.612 11.9396 74.7736 9.73511 77.8646 9.73511C80.9337 9.73511 83.0952 11.9396 83.0952 15.0514C83.0952 18.121 80.8908 20.3254 77.7998 20.3254C74.7308 20.3254 72.612 18.1639 72.612 15.0514ZM80.3723 15.1156V15.03C80.3723 13.0855 79.4208 11.9176 77.8646 11.9176C76.287 11.9176 75.3355 13.0855 75.3355 15.03V15.1162C75.3355 17.0179 76.2644 18.1424 77.8206 18.1424C79.3988 18.1424 80.3723 17.0185 80.3723 15.1156ZM84.2917 9.92897H86.9718V11.5941C87.5124 10.4047 88.5067 9.71311 89.9552 9.71311C92.1816 9.71311 93.5 11.2046 93.5 14.0143V20.131H90.8199V14.1654C90.8199 12.7394 90.2793 12.0038 89.0264 12.0038C87.7502 12.0038 86.973 13.0415 86.973 14.9432V20.1304H84.2923L84.2917 9.92897ZM10.1085 12.4554C10.941 12.4815 11.855 12.4599 12.8636 12.3802C12.7185 10.3494 12.0578 8.66234 11.0677 7.35528C11.3049 9.11445 10.9687 10.9033 10.1091 12.4563L10.1085 12.4554ZM15.6263 5.77899H26.0222V8.13503H18.3279V11.5716H23.4503V13.9276H18.3279V17.7751H26.2606V20.1317H15.6263V5.77899Z" fill="white"/>
</g>
</svg>
