<svg width="94" height="22" viewBox="0 0 94 22" fill="none" xmlns="http://www.w3.org/2000/svg">
<path fill-rule="evenodd" clip-rule="evenodd" d="M82.9882 18.1843H86.5251V14.6474H90.062V11.1105H93.5001V0.595703H82.9882V4.13261H75.8098V0.595703H65.2979V11.1076H68.7359V14.6445H72.2729V18.1814H75.8098V21.7183H82.9882V18.1814V18.1843ZM87.5365 5.85311V2.3133H91.0734V5.8502H87.5365V9.38711H83.9996V5.8502H87.5365V5.85311Z" fill="#ED1B2E"/>
<path d="M0.5 18.2165V15.4584H3.25803V8.56482H0.5V7.18725H1.87756V5.80969H3.25512V4.43213H6.01316V15.4643H8.77119V18.2223H0.5V18.2165Z" fill="white"/>
<path d="M11.0348 18.2164V16.8389H9.65723V5.80676H11.0348V4.4292H19.3089V5.80676H20.6864V16.8389H19.3089V18.2164H11.0348ZM17.9284 15.4584V7.18432H12.4124V15.4584H17.9284Z" fill="white"/>
<path d="M22.9479 18.2164V16.8389H21.5674V5.80676H22.9479V4.4292H31.2219V5.80676H32.5995V16.8389H31.2219V18.2164H22.9479ZM29.8444 15.4584V7.18432H24.3283V15.4584H29.8444Z" fill="white"/>
<path d="M43.6638 18.0827V12.5696H38.1506V18.0827H35.3955V4.3042H38.1506V9.81736H43.6638V4.3042H46.4189V18.0856H43.6638V18.0827Z" fill="white"/>
<path d="M47.3027 18.0827V4.3042H56.9486V5.68176H58.3261V11.1949H56.9486V12.5725H50.0579V18.0856H47.3027V18.0827ZM55.571 9.81445V7.05932H50.0579V9.81445H55.571Z" fill="white"/>
</svg>
