<svg width="94" height="27" viewBox="0 0 94 27" fill="none" xmlns="http://www.w3.org/2000/svg">
<mask id="mask0_5521_1150" style="mask-type:luminance" maskUnits="userSpaceOnUse" x="0" y="0" width="94" height="27">
<path d="M93.5 0.160156H0.5V26.1602H93.5V0.160156Z" fill="white"/>
</mask>
<g mask="url(#mask0_5521_1150)">
<path d="M38.4486 9.41868C38.4486 9.83165 38.938 10.0367 39.4334 10.0367C39.896 10.0367 40.3854 9.83165 40.3854 9.47066C40.3854 8.89596 39.6931 8.86997 39.2394 8.84398C38.1024 8.77467 36.9653 8.33571 36.9653 7.08235C36.9653 5.82899 38.1113 5.11279 39.3827 5.11279C40.5824 5.11279 41.8 5.77412 41.7732 7.08235H40.2541C40.2452 6.66938 39.8453 6.49899 39.4095 6.49899C39.0454 6.49899 38.565 6.59429 38.565 7.05058C38.565 7.45489 38.9201 7.55019 39.517 7.61084C40.8421 7.72347 41.997 8.02381 41.997 9.4851C41.997 10.7501 40.7257 11.4114 39.4573 11.4114C38.1889 11.4114 36.8818 10.776 36.9086 9.42445H38.4545L38.4486 9.41868Z" fill="white"/>
<path d="M48.4858 5.23145H49.0647V11.2672H47.4382V8.48902L46.1132 9.82902H45.9281L44.6031 8.48902V11.2672H42.9766V5.23145H43.5555L46.0266 7.83635L48.4888 5.23145H48.4858Z" fill="white"/>
<path d="M51.6753 10.5192L51.3202 11.2671H49.6221V11.0534L52.4752 5.19092H53.2213L56.0475 11.0534V11.2671H54.3673L54.0032 10.5192H51.6753ZM52.2006 9.20224H53.4899L52.8422 7.74962L52.2036 9.20224H52.2006Z" fill="white"/>
<path d="M61.8906 11.0363V11.2587H60.1656L59.1002 9.37569H58.2466V11.2587H56.6201V5.24018C57.5453 5.24018 58.4406 5.23152 59.3568 5.24018C60.858 5.24018 61.5951 6.31449 61.5951 7.37147C61.5862 8.05879 61.2847 8.72013 60.67 9.12444L61.8876 11.0334L61.8906 11.0363ZM59.3508 8.09634C59.8045 8.09634 60.0253 7.71802 60.0253 7.3397C60.0253 6.96138 59.8134 6.60906 59.3508 6.60906H58.2227V8.09634H59.3508Z" fill="white"/>
<path d="M62.21 6.62367V5.24902H66.8298V6.62367H65.3108V11.2675H63.738V6.62367H62.21Z" fill="white"/>
<path d="M68.9007 9.41868C68.9007 9.83165 69.3902 10.0367 69.8856 10.0367C70.3481 10.0367 70.8376 9.83165 70.8376 9.47066C70.8376 8.89596 70.1452 8.86997 69.6916 8.84398C68.5545 8.77467 67.4175 8.33571 67.4175 7.08235C67.4175 5.82899 68.5635 5.11279 69.8348 5.11279C71.0346 5.11279 72.2522 5.77412 72.2253 7.08235H70.7063C70.6973 6.66938 70.2974 6.49899 69.8617 6.49899C69.4976 6.49899 69.0171 6.59429 69.0171 7.05058C69.0171 7.45489 69.3722 7.55019 69.9691 7.61084C71.2942 7.72347 72.4492 8.02381 72.4492 9.4851C72.4492 10.7501 71.1778 11.4114 69.9094 11.4114C68.6411 11.4114 67.3339 10.776 67.3608 9.42445H68.9067L68.9007 9.41868Z" fill="white"/>
<path d="M76.281 11.3798C74.6366 11.3798 73.0996 10.3488 73.0996 8.25794C73.0996 6.16709 74.6903 5.12744 76.3078 5.12744C77.9254 5.12744 79.4803 6.17575 79.4803 8.25794C79.4803 10.0976 78.1641 11.3798 76.281 11.3798ZM76.2899 9.89251C77.0629 9.89251 77.8538 9.33225 77.8538 8.25794C77.8538 7.18364 77.0808 6.62338 76.3078 6.62338C75.5349 6.62338 74.7261 7.15764 74.7261 8.25794C74.7261 9.35824 75.4901 9.89251 76.2899 9.89251Z" fill="white"/>
<path d="M84.1005 9.32387H82.1099V11.2675H80.4834V5.24902H84.3661V6.615H82.1099V7.94634H84.1005V9.32099V9.32387Z" fill="white"/>
<path d="M84.8379 6.62367V5.24902H89.4578V6.62367H87.9387V11.2675H86.3659V6.62367H84.8379Z" fill="white"/>
<path d="M40.09 14.6429C41.3076 14.6429 42.4984 15.1945 42.8536 16.4479H42.1254C41.7971 15.5786 41.0241 15.2956 40.09 15.2956C38.6426 15.2956 37.7353 16.3612 37.7353 17.7272C37.7353 19.0932 38.6426 20.1589 40.09 20.1589C41.3703 20.1589 42.2835 19.4975 42.3999 18.1893H40.1885V17.5799H43.0863C43.1132 18.1315 43.0505 18.6629 42.8476 19.1452C42.385 20.2542 41.3464 20.8289 40.093 20.8289C38.3352 20.8289 36.9922 19.5899 36.9922 17.7243C36.9922 15.8587 38.359 14.6372 40.093 14.6372L40.09 14.6429Z" fill="white"/>
<path d="M44.8713 19.2613L44.1431 20.7486H43.3701V20.6533L46.268 14.7041H46.6052L49.4762 20.6533V20.7486H48.7122L47.984 19.2613H44.8743H44.8713ZM45.119 18.6433H47.7303L46.4232 15.8333L45.116 18.6433H45.119Z" fill="white"/>
<path d="M55.7965 14.7212H56.08V20.7483H55.3339V16.4078L53.2896 19.1253H53.1732L51.1289 16.4078V20.7483H50.3828V14.7212H50.6753L53.2329 18.0828L55.7906 14.7212H55.7965Z" fill="white"/>
<path d="M60.1332 20.1709V20.7456H57.2354V20.1709H58.3097V15.2961H57.3069V14.73H60.0616V15.2961H59.0588V20.1709H60.1332Z" fill="white"/>
<path d="M61.9635 16.2002L62.0262 17.8521V20.7487H61.2891V14.7129H61.5457L65.5985 19.2701L65.518 17.5431V14.7245H66.2641V20.7602H66.0253L61.9665 16.2031L61.9635 16.2002Z" fill="white"/>
<path d="M70.632 14.6429C71.8496 14.6429 73.0404 15.1945 73.3955 16.4479H72.6674C72.3391 15.5786 71.5661 15.2956 70.632 15.2956C69.1846 15.2956 68.2773 16.3612 68.2773 17.7272C68.2773 19.0932 69.1846 20.1589 70.632 20.1589C71.9123 20.1589 72.8255 19.4975 72.9419 18.1893H70.7305V17.5799H73.6283C73.6552 18.1315 73.5925 18.6629 73.3896 19.1452C72.927 20.2542 71.8884 20.8289 70.635 20.8289C68.8772 20.8289 67.5342 19.5899 67.5342 17.7243C67.5342 15.8587 68.901 14.6372 70.635 14.6372L70.632 14.6429Z" fill="white"/>
<path d="M16.7017 11.7811C15.7012 11.3747 14.9461 10.459 14.9461 9.34009C14.9461 7.90381 16.1495 6.73926 17.6338 6.73926C18.0043 6.73926 18.3582 6.8032 18.6768 6.94249C20.8265 7.88554 27.1671 10.9408 27.1671 10.9408C28.2572 11.5505 28.9298 12.6762 28.9298 13.8956V18.1405C28.9298 19.0881 28.4083 19.9627 27.5588 20.4376L18.2261 25.4292C17.3789 25.9019 16.3336 25.9019 15.4865 25.4292L6.1986 20.143C5.97679 20.0289 5.82812 19.8051 5.82812 19.5448C5.82812 19.3986 5.87768 19.2616 5.95791 19.1497L5.93903 19.1771C6.63987 18.1496 7.89052 17.5217 9.245 17.6541C9.77121 17.7043 10.2644 17.8573 10.6844 18.1085C11.5717 18.6405 14.1225 20.4079 16.7937 20.4079C19.2762 20.4079 20.8737 19.0607 20.8737 19.0607C21.7775 18.3825 22.3603 17.0787 22.3603 15.8867V15.8913C22.3603 14.7701 21.65 13.8111 20.6401 13.4115L16.7017 11.7788V11.7811Z" fill="#F0013A"/>
<path d="M15.4798 9.23953C15.4798 9.23953 15.4798 9.24622 15.4775 9.25513C15.4775 9.25067 15.4775 9.24622 15.4798 9.24176C15.4798 9.24176 15.4798 9.23953 15.4798 9.2373V9.23953Z" fill="url(#paint0_linear_5521_1150)"/>
<path d="M15.4418 9.21659C15.4418 9.21659 15.4418 9.22328 15.4395 9.23219C15.4395 9.22773 15.4395 9.22327 15.4418 9.21881C15.4418 9.21881 15.4418 9.21659 15.4418 9.21436V9.21659Z" fill="url(#paint1_linear_5521_1150)"/>
<path d="M18.2237 25.4271C17.3766 25.8998 16.3312 25.8998 15.4841 25.4271L6.1986 20.1433C5.97679 20.0291 5.82812 19.8053 5.82812 19.545C5.82812 19.3989 5.87768 19.2619 5.95791 19.15L5.93903 19.1774C6.63987 18.1498 7.89052 17.5219 9.245 17.6543C9.77121 17.7046 10.2644 17.8575 10.6844 18.1087C11.5717 18.6408 14.1225 20.4081 16.7937 20.4081C19.2762 20.4081 20.8737 19.0609 20.8737 19.0609C21.7775 18.3827 22.3603 17.0789 22.3603 15.8869V15.8915C22.3603 14.7703 21.65 13.8113 20.6401 13.4117L16.7017 11.779C15.7012 11.3726 14.9461 10.4569 14.9461 9.33801C14.9461 8.61416 15.2505 7.9611 15.7413 7.49072C15.3354 7.88347 15.0853 8.43149 15.0853 9.02975C15.0853 9.96367 15.6941 10.7606 16.5483 11.0689L22.1338 13.1149C24.2575 13.8844 25.7701 15.8687 25.7701 18.1932C25.7701 20.2346 24.6044 22.0134 22.8794 22.9382L18.2237 25.4248V25.4271Z" fill="url(#paint2_linear_5521_1150)"/>
<path d="M27.5119 5.41491C27.7172 5.54735 27.8517 5.7734 27.8517 6.02915C27.8517 6.12962 27.8305 6.22552 27.7928 6.31458C27.3468 7.42661 26.3722 7.91983 26.3439 7.93353C25.643 8.27833 24.8077 8.31486 24.0738 8.07282C23.8355 7.99518 23.583 7.86959 23.3801 7.72574C22.6486 7.20968 20.034 5.48798 17.4359 5.48798C14.9936 5.48798 13.4197 6.76898 13.4197 6.76898C12.5702 7.38322 12.0133 8.54092 11.9638 9.63012L11.959 9.85846C11.959 10.9226 12.6599 11.836 13.6533 12.215L17.5752 13.7723C18.5592 14.1605 19.3048 15.0282 19.3048 16.0923C19.3048 17.4578 18.1203 18.5629 16.6596 18.5629C16.2962 18.5629 15.9446 18.5013 15.6331 18.3711C13.5165 17.476 7.275 14.5715 7.275 14.5715C6.20369 13.9938 5.54297 12.9229 5.54297 11.7652V7.80109C5.54297 6.85347 6.06447 5.97891 6.91397 5.50396L16.2467 0.514659C17.0938 0.0419885 18.1391 0.0419885 18.9863 0.514659L27.5119 5.41491Z" fill="#E90531"/>
<path d="M27.5119 5.41491C27.7172 5.54735 27.8517 5.7734 27.8517 6.02915C27.8517 6.12962 27.8305 6.22552 27.7928 6.31458C27.3468 7.42661 26.3722 7.91983 26.3439 7.93353C25.643 8.27833 24.8077 8.31486 24.0738 8.07282C23.8355 7.99518 23.583 7.86959 23.3801 7.72574C22.6486 7.20968 20.034 5.48798 17.4359 5.48798C14.9936 5.48798 13.4197 6.76898 13.4197 6.76898C12.5702 7.38322 12.0133 8.54092 11.9638 9.63012L11.959 9.85846C11.959 10.9226 12.6599 11.836 13.6533 12.215L17.5752 13.7723C18.5592 14.1605 19.3048 15.0282 19.3048 16.0923C19.3048 17.4578 18.1203 18.5629 16.6596 18.5629C16.2962 18.5629 15.9446 18.5013 15.6331 18.3711C13.5165 17.476 7.275 14.5715 7.275 14.5715C6.20369 13.9938 5.54297 12.9229 5.54297 11.7652V7.80109C5.54297 6.85347 6.06447 5.97891 6.91397 5.50396L16.2467 0.514659C17.0938 0.0419885 18.1391 0.0419885 18.9863 0.514659L27.5119 5.41491Z" fill="url(#paint3_linear_5521_1150)"/>
<path d="M27.7715 6.36715C27.2665 7.16635 26.358 7.70067 25.3198 7.70067C24.659 7.70067 24.0502 7.48146 23.5665 7.1184C21.7094 5.75062 19.2199 4.67969 16.6761 4.67969H16.6714C12.9572 4.67969 9.84473 8.04775 9.84473 11.6419C9.84473 13.7587 11.2039 16.1517 12.8982 17.1632C12.8982 17.1632 12.8982 17.1632 12.9006 17.1632C13.9955 17.6588 14.9984 18.1063 15.6331 18.3758C15.9446 18.5082 16.2962 18.5676 16.6596 18.5676C18.1203 18.5676 19.3048 17.4601 19.3048 16.0969C19.3048 15.2337 18.8305 14.4985 18.1203 14.0464C18.0636 14.0144 18.0094 13.9824 17.9551 13.9527C17.8395 13.8888 17.7167 13.8317 17.594 13.7838L16.5746 13.3819L13.6557 12.2151C12.6622 11.836 11.9614 10.9295 11.9614 9.86308L11.9661 9.63474C12.0157 8.54554 12.5726 7.38784 13.4221 6.7736C13.4221 6.7736 14.996 5.49259 17.4383 5.49259C17.8442 5.49259 18.25 5.53369 18.6512 5.60676C20.8103 5.99951 22.7736 7.29422 23.3919 7.73036C23.5948 7.87421 23.8473 7.99752 24.0856 8.07744C24.2225 8.12311 24.3617 8.15736 24.5033 8.18247C25.1215 8.29208 25.7775 8.21444 26.3462 7.93586C26.3722 7.92216 27.3208 7.44493 27.7739 6.36486L27.7715 6.36715Z" fill="url(#paint4_linear_5521_1150)"/>
<path d="M27.7715 6.36715C27.2665 7.16635 26.358 7.70067 25.3198 7.70067C24.659 7.70067 24.0502 7.48146 23.5665 7.1184C21.7094 5.75062 19.2199 4.67969 16.6761 4.67969H16.6714C12.9572 4.67969 9.84473 8.04775 9.84473 11.6419C9.84473 13.7587 11.2039 16.1517 12.8982 17.1632C12.8982 17.1632 12.8982 17.1632 12.9006 17.1632C13.9955 17.6588 14.9984 18.1063 15.6331 18.3758C15.9446 18.5082 16.2962 18.5676 16.6596 18.5676C18.1203 18.5676 19.3048 17.4601 19.3048 16.0969C19.3048 15.2337 18.8305 14.4985 18.1203 14.0464C18.0636 14.0144 18.0094 13.9824 17.9551 13.9527C17.8395 13.8888 17.7167 13.8317 17.594 13.7838L16.5746 13.3819L13.6557 12.2151C12.6622 11.836 11.9614 10.9295 11.9614 9.86308L11.9661 9.63474C12.0157 8.54554 12.5726 7.38784 13.4221 6.7736C13.4221 6.7736 14.996 5.49259 17.4383 5.49259C17.8442 5.49259 18.25 5.53369 18.6512 5.60676C20.8103 5.99951 22.7736 7.29422 23.3919 7.73036C23.5948 7.87421 23.8473 7.99752 24.0856 8.07744C24.2225 8.12311 24.3617 8.15736 24.5033 8.18247C25.1215 8.29208 25.7775 8.21444 26.3462 7.93586C26.3722 7.92216 27.3208 7.44493 27.7739 6.36486L27.7715 6.36715Z" fill="url(#paint5_linear_5521_1150)"/>
<path d="M27.7715 6.36715C27.2665 7.16635 26.358 7.70067 25.3198 7.70067C24.659 7.70067 24.0502 7.48146 23.5665 7.1184C21.7094 5.75062 19.2199 4.67969 16.6761 4.67969H16.6714C12.9572 4.67969 9.84473 8.04775 9.84473 11.6419C9.84473 13.7587 11.2039 16.1517 12.8982 17.1632C12.8982 17.1632 12.8982 17.1632 12.9006 17.1632C13.9955 17.6588 14.9984 18.1063 15.6331 18.3758C15.9446 18.5082 16.2962 18.5676 16.6596 18.5676C18.1203 18.5676 19.3048 17.4601 19.3048 16.0969C19.3048 15.2337 18.8305 14.4985 18.1203 14.0464C18.0636 14.0144 18.0094 13.9824 17.9551 13.9527C17.8395 13.8888 17.7167 13.8317 17.594 13.7838L16.5746 13.3819L13.6557 12.2151C12.6622 11.836 11.9614 10.9295 11.9614 9.86308L11.9661 9.63474C12.0157 8.54554 12.5726 7.38784 13.4221 6.7736C13.4221 6.7736 14.996 5.49259 17.4383 5.49259C17.8442 5.49259 18.25 5.53369 18.6512 5.60676C20.8103 5.99951 22.7736 7.29422 23.3919 7.73036C23.5948 7.87421 23.8473 7.99752 24.0856 8.07744C24.2225 8.12311 24.3617 8.15736 24.5033 8.18247C25.1215 8.29208 25.7775 8.21444 26.3462 7.93586C26.3722 7.92216 27.3208 7.44493 27.7739 6.36486L27.7715 6.36715Z" fill="url(#paint6_linear_5521_1150)"/>
</g>
<defs>
<linearGradient id="paint0_linear_5521_1150" x1="16.4774" y1="20.544" x2="15.5322" y2="9.08008" gradientUnits="userSpaceOnUse">
<stop stop-color="#067993" stop-opacity="0"/>
<stop offset="0.34" stop-color="#096675" stop-opacity="0.23"/>
<stop offset="0.91" stop-color="#133325" stop-opacity="0.84"/>
<stop offset="1" stop-color="#152B17" stop-opacity="0.95"/>
</linearGradient>
<linearGradient id="paint1_linear_5521_1150" x1="16.4393" y1="20.521" x2="15.494" y2="9.05713" gradientUnits="userSpaceOnUse">
<stop stop-color="#067993" stop-opacity="0"/>
<stop offset="0.34" stop-color="#096675" stop-opacity="0.23"/>
<stop offset="0.91" stop-color="#133325" stop-opacity="0.84"/>
<stop offset="1" stop-color="#152B17" stop-opacity="0.95"/>
</linearGradient>
<linearGradient id="paint2_linear_5521_1150" x1="9.32995" y1="29.3843" x2="17.8521" y2="15.5645" gradientUnits="userSpaceOnUse">
<stop stop-color="#F0002F" stop-opacity="0"/>
<stop offset="0.46" stop-color="#EA042D" stop-opacity="0.9"/>
<stop offset="0.59" stop-color="#DC0426" stop-opacity="0.92"/>
<stop offset="0.82" stop-color="#B80513" stop-opacity="0.96"/>
<stop offset="1" stop-color="#940701"/>
</linearGradient>
<linearGradient id="paint3_linear_5521_1150" x1="16.6974" y1="-2.71639" x2="16.6974" y2="20.4673" gradientUnits="userSpaceOnUse">
<stop stop-color="#E90531" stop-opacity="0"/>
<stop offset="0.51" stop-color="#E7042B" stop-opacity="0"/>
<stop offset="0.64" stop-color="#D30420" stop-opacity="0.24"/>
<stop offset="0.93" stop-color="#A10607" stop-opacity="0.84"/>
<stop offset="1" stop-color="#940701"/>
</linearGradient>
<linearGradient id="paint4_linear_5521_1150" x1="11.3361" y1="22.2621" x2="19.4068" y2="6.03951" gradientUnits="userSpaceOnUse">
<stop stop-color="#F0002F" stop-opacity="0"/>
<stop offset="0.31" stop-color="#EA042D" stop-opacity="0.9"/>
<stop offset="0.51" stop-color="#E7042B" stop-opacity="0.94"/>
<stop offset="0.77" stop-color="#BC0515" stop-opacity="0.97"/>
<stop offset="1" stop-color="#940701"/>
</linearGradient>
<linearGradient id="paint5_linear_5521_1150" x1="18.906" y1="28.9047" x2="18.8221" y2="10.418" gradientUnits="userSpaceOnUse">
<stop stop-color="#F0002F" stop-opacity="0"/>
<stop offset="0.46" stop-color="#EA042D" stop-opacity="0.9"/>
<stop offset="0.59" stop-color="#DC0426" stop-opacity="0.92"/>
<stop offset="0.82" stop-color="#B80513" stop-opacity="0.96"/>
<stop offset="1" stop-color="#940701"/>
</linearGradient>
<linearGradient id="paint6_linear_5521_1150" x1="17.6436" y1="10.3449" x2="1.40138" y2="1.20807" gradientUnits="userSpaceOnUse">
<stop stop-color="#F0002F" stop-opacity="0"/>
<stop offset="0.51" stop-color="#E7042B" stop-opacity="0"/>
<stop offset="0.66" stop-color="#C70724" stop-opacity="0.29"/>
<stop offset="1" stop-color="#7A0F14"/>
</linearGradient>
</defs>
</svg>
