<svg width="94" height="18" viewBox="0 0 94 18" fill="none" xmlns="http://www.w3.org/2000/svg">
<path fill-rule="evenodd" clip-rule="evenodd" d="M14.125 0.160156H0.5V17.2853H14.125V0.160156ZM3.79986 3.26034V14.6852L7.62489 14.66C8.77481 14.66 9.67472 14.3602 10.3 13.8104C10.9247 13.2606 11.2251 12.4351 11.2251 11.335C11.2479 10.7552 11.1001 10.1816 10.8 9.68496C10.6576 9.44546 10.4658 9.23906 10.2373 9.07956C10.0089 8.91996 9.74897 8.81106 9.47504 8.75996C9.9242 8.56386 10.3003 8.23136 10.55 7.80966C10.7749 7.35996 10.9001 6.85996 10.9001 6.35996C10.9001 5.33533 10.55 4.56015 9.90011 4.03498C9.2502 3.51035 8.32513 3.26034 7.15004 3.26034H3.79986ZM5.87485 12.9099V9.63526H7.60027C7.97501 9.61006 8.32513 9.78506 8.54997 10.0849C8.77173 10.4626 8.87627 10.8977 8.8503 11.335C8.87743 11.756 8.75327 12.173 8.50018 12.5106C8.36386 12.6483 8.19963 12.7551 8.01855 12.824C7.83747 12.8929 7.64373 12.9222 7.45038 12.9099H5.87485ZM7.10026 8.08536H5.87485V5.035H7.00015C7.40005 5.01038 7.82511 5.13511 8.1249 5.41028C8.40007 5.73523 8.5248 6.16026 8.50018 6.58536C8.54997 6.98476 8.40007 7.38516 8.15007 7.68496C8.01384 7.82286 7.84965 7.92986 7.66857 7.99896C7.48748 8.06806 7.2937 8.09746 7.10026 8.08536ZM27.2004 17.2602H28.0002V0.160156H27.2004V17.2602ZM41.1001 17.2602H41.8999V0.160156H41.1001V17.2602ZM54.9751 17.2602H55.7749V0.160156H54.9751V17.2602ZM68.9 17.2602H69.6752V0.160156H68.9V17.2602ZM82.8002 17.2602H83.6V0.160156H82.8002V17.2602ZM22.8754 14.0352C23.4006 13.7349 23.8502 13.3104 24.15 12.7852H24.2004V8.66036H20.65V9.81026H22.6002V12.4351C22.4503 12.7103 22.2003 12.9603 21.9251 13.1353C21.5252 13.335 21.1002 13.4351 20.6505 13.41C20.3193 13.4203 19.99 13.3561 19.687 13.222C19.384 13.0879 19.115 12.8874 18.8999 12.6353C18.4754 12.1353 18.25 11.3853 18.25 10.4104V7.00986C18.25 6.06019 18.4502 5.33533 18.8501 4.83477C19.048 4.59024 19.3001 4.39518 19.5865 4.26508C19.8729 4.13499 20.1857 4.07343 20.5001 4.0853C21.1751 4.0853 21.6998 4.28498 22.0499 4.6351C22.4 4.98522 22.5751 5.53501 22.6002 6.25986H24.1003L24.1254 6.21006C24.0751 5.13566 23.7501 4.31015 23.1254 3.73519C22.5001 3.16023 21.6254 2.85989 20.4503 2.85989C19.3004 2.83528 18.3753 3.21001 17.6756 3.93541C16.9754 4.66026 16.6252 5.68545 16.6252 7.00986V10.3853C16.6252 11.7349 17 12.7601 17.7254 13.4855C18.4502 14.2103 19.4251 14.585 20.6253 14.585C21.4 14.6102 22.2003 14.4351 22.8754 14.0352ZM34.5004 5.51039L35.8998 10.5105H33.0004L34.4501 5.51039H34.5004ZM36.2747 11.76H32.6508L31.8247 14.6354H30.2L33.6995 3.23463H35.2499L38.7248 14.6348H37.1L36.2747 11.76ZM48.4252 12.5352L45.7501 3.23518L43.6997 3.23463V14.6354H45.2752V10.26L45.15 5.88513H45.1751L47.9252 14.6348H48.9756L51.6999 5.85996L51.7502 5.88513L51.625 10.26V14.6354H53.1999V3.23518H51.1501L48.475 12.5352H48.4252ZM61.4999 14.6354H63.0749V3.23463H61.4999V14.6354ZM78.5999 14.6354H80.2V3.23518H78.5999V11.6845H78.5501L74.2251 3.23463H72.6501V14.6354H74.2251V6.16026H74.2754L78.5999 14.6354ZM92.2249 14.1102C92.7501 13.8104 93.1752 13.3853 93.5001 12.8602V8.71066H89.9749V9.86006H91.9251V12.4597C91.7752 12.7354 91.5252 12.9849 91.2501 13.16C90.8502 13.3602 90.4251 13.4603 89.9749 13.4351C89.6438 13.4454 89.3146 13.381 89.0118 13.2469C88.709 13.1127 88.4402 12.9121 88.2254 12.6599C87.8003 12.1605 87.5749 11.4099 87.5749 10.4351V7.03506C87.5749 6.08535 87.7751 5.35995 88.175 4.85994C88.3728 4.6153 88.625 4.42014 88.9114 4.28995C89.1978 4.15975 89.5106 4.09811 89.825 4.10992C90.5 4.10992 91.0252 4.28498 91.3753 4.66026C91.7249 5.035 91.9 5.56017 91.9251 6.28506H93.4252L93.4503 6.23526C93.4 5.16027 93.075 4.33476 92.4503 3.76035C91.825 3.18539 90.9503 2.88561 89.7752 2.88561C88.6499 2.88561 87.7254 3.26034 87.0251 3.98519C86.3249 4.71005 85.9753 5.73523 85.9753 7.06016V10.4854C85.9753 11.835 86.3501 12.8602 87.0749 13.585C87.8249 14.3099 88.7752 14.66 89.9749 14.66C90.75 14.6852 91.5498 14.5101 92.2249 14.1102Z" fill="#FFCD00"/>
</svg>
